<svg xmlns="http://www.w3.org/2000/svg" xmlns:xlink="http://www.w3.org/1999/xlink" version="1.1" x="0px" y="0px" viewBox="0 0 100 100"  xml:space="preserve"><path d="M94.91,85.71L72,25.96l-6.29,29.7l5.59-3.17l0.75,13.51l-11.02-0.71l-4.51-31.84l9.24,5.02L50,5L34.25,38.48l9.24-5.02  l-4.51,31.84l-11.02,0.71l0.75-13.51l5.59,3.17L28,25.96L5.09,85.71l31.43-3.4L34.69,95h30.62l-1.83-12.69L94.91,85.71z M27.41,33.5  L23.3,50.22l-6.28,25.53l6.41-5.51l2.26-1.94l15.18-0.98l0,0l5.36-37.79l-7.23,3.93L50,10.04v5.04v57.95l7.15-4.47l1.99-1.24  l15.18,0.98l-1.07-19.38l-4.46,2.52l3.8-17.94l4.11,16.72l6.28,25.53L50,73.04l-32.98,2.72l-5.24,4.5L8.35,83.2L27.41,33.5z   M39.04,79.88L39.04,79.88l2.38-1.49L50,73.04v10.51l-9.87,7.16l-2.96,2.15L39.04,79.88z"/></svg>